<svg id="Logo" xmlns="http://www.w3.org/2000/svg" xmlns:xlink="http://www.w3.org/1999/xlink" width="198.144" height="40" viewBox="0 0 198.144 40">
  <defs>
    <linearGradient id="linear-gradient" y1="1" x2="1" gradientUnits="objectBoundingBox">
      <stop offset="0" stop-color="#003169"/>
      <stop offset="0.29" stop-color="#023069"/>
      <stop offset="0.433" stop-color="#093069"/>
      <stop offset="0.544" stop-color="#16306b"/>
      <stop offset="0.639" stop-color="#292f6c"/>
      <stop offset="0.722" stop-color="#412e6f"/>
      <stop offset="0.799" stop-color="#5f2d72"/>
      <stop offset="0.869" stop-color="#832c75"/>
      <stop offset="0.935" stop-color="#ab2a79"/>
      <stop offset="0.995" stop-color="#d9297d"/>
      <stop offset="1" stop-color="#dd297e"/>
    </linearGradient>
  </defs>
  <path id="Path_1927" data-name="Path 1927" d="M30.545,9.2H27.052V5.707h3.492ZM21.528,5.707H18.034V9.2h3.493Zm-9.017,0H9.017V9.2H12.51Zm-9.018,0H0V9.2H3.492Zm27.052,9.017H27.052v3.493h3.492Zm-9.017,0H18.034v3.493h3.493Zm-9.017,0H9.017v3.493H12.51Zm-9.018,0H0v3.493H3.492ZM30.545,23.71H27.052V27.2h3.492Zm-9.017,0H18.034V27.2h3.493Zm-9.017,0H9.017V27.2H12.51Zm-9.018,0H0V27.2H3.492Zm27.052,9.017H27.052V36.22h3.492Zm-9.017,0H18.034V36.22h3.493Zm-9.017,0H9.017V36.22H12.51Zm-9.018,0H0V36.22H3.492Z" transform="translate(0 -0.964)" fill="url(#linear-gradient)"/>
  <g id="Group_7493" data-name="Group 7493" transform="translate(39.562)">
    <path id="Path_1928" data-name="Path 1928" d="M63.644,10.954a19.743,19.743,0,0,0-4.3-.455,13.07,13.07,0,0,0-4.615.8,11.326,11.326,0,0,0-3.734,2.282,10.463,10.463,0,0,0-2.5,3.581,11.8,11.8,0,0,0-.9,4.674,15.462,15.462,0,0,0,.573,4.275,9.986,9.986,0,0,0,1.76,3.494,8.39,8.39,0,0,0,3,2.353,9.888,9.888,0,0,0,4.26.86,8.916,8.916,0,0,0,3.51-.632,10.252,10.252,0,0,0,2.419-1.405,7.846,7.846,0,0,0,1.3-1.245v2.1a12.639,12.639,0,0,1-.348,3.052,5.471,5.471,0,0,1-3.429,3.913,9.606,9.606,0,0,1-3.589.579,9.558,9.558,0,0,1-3.889-.663A10.588,10.588,0,0,1,51,37.29l-.265-.215-1.56,2.04.234.2a8.188,8.188,0,0,0,1.05.748,11.744,11.744,0,0,0,1.59.806,11.4,11.4,0,0,0,2.167.647,13.9,13.9,0,0,0,2.751.253,13.28,13.28,0,0,0,4.614-.715A8.168,8.168,0,0,0,64.755,39a8,8,0,0,0,1.8-3.266,15.288,15.288,0,0,0,.55-4.231V12.047l-.2-.087A18,18,0,0,0,63.644,10.954ZM59.3,13.043a14.9,14.9,0,0,1,2.253.152c.657.1,1.228.214,1.7.332a9.8,9.8,0,0,1,1.217.352V23.988a5.4,5.4,0,0,1-.4,1.786A7.062,7.062,0,0,1,62.8,27.868a7.416,7.416,0,0,1-2.185,1.712,6.775,6.775,0,0,1-3.2.7,7.061,7.061,0,0,1-3.249-.679,6,6,0,0,1-2.143-1.824A7.868,7.868,0,0,1,50.8,25.113a12.978,12.978,0,0,1-.392-3.228,9.575,9.575,0,0,1,.711-3.785,7.944,7.944,0,0,1,1.932-2.772,8.466,8.466,0,0,1,2.821-1.7A9.95,9.95,0,0,1,59.3,13.043Z" transform="translate(-47.599 -1.773)" fill="#003169"/>
    <rect id="Rectangle_2930" data-name="Rectangle 2930" width="2.678" height="30.513" transform="translate(23.281)" fill="#003169"/>
    <path id="Path_1929" data-name="Path 1929" d="M101.282,13.775a11.246,11.246,0,0,0-3.481-2.4,10.726,10.726,0,0,0-8.5,0,11.158,11.158,0,0,0-5.832,5.948,11.426,11.426,0,0,0,0,8.671A11.153,11.153,0,0,0,89.3,31.944a10.724,10.724,0,0,0,8.5,0A11.161,11.161,0,0,0,103.634,26a11.436,11.436,0,0,0,0-8.671A11.234,11.234,0,0,0,101.282,13.775ZM93.55,30.324a7.57,7.57,0,0,1-3.173-.686,7.962,7.962,0,0,1-2.6-1.891,9.541,9.541,0,0,1-1.751-2.769,8.57,8.57,0,0,1-.646-3.318A9.145,9.145,0,0,1,86,18.27a8.552,8.552,0,0,1,1.723-2.736,8.406,8.406,0,0,1,2.583-1.851,7.844,7.844,0,0,1,6.413,0,7.989,7.989,0,0,1,2.6,1.891,9.469,9.469,0,0,1,1.75,2.789,8.637,8.637,0,0,1,.647,3.3,9.132,9.132,0,0,1-.626,3.39,8.559,8.559,0,0,1-1.722,2.737,8.334,8.334,0,0,1-2.6,1.85A7.683,7.683,0,0,1,93.55,30.324Z" transform="translate(-53.511 -1.773)" fill="#003169"/>
    <path id="Path_1930" data-name="Path 1930" d="M129.835,11.964a8.29,8.29,0,0,0-3.005-2.377,11.065,11.065,0,0,0-7.293-.441,8.448,8.448,0,0,0-2.213,1.073,7.785,7.785,0,0,0-1.565,1.427c-.148.18-.287.359-.418.534V0h-2.678V29.636l.2.088a15.354,15.354,0,0,0,3.272.94,23.018,23.018,0,0,0,4.291.386,14.141,14.141,0,0,0,4.605-.734,10.987,10.987,0,0,0,3.737-2.147,9.817,9.817,0,0,0,2.5-3.495,11.888,11.888,0,0,0,.9-4.742,16.321,16.321,0,0,0-.573-4.408A10.177,10.177,0,0,0,129.835,11.964Zm-9.368,16.542a16.333,16.333,0,0,1-3.571-.3c-.7-.165-1.236-.3-1.6-.413V19.217a9.068,9.068,0,0,1,.433-2.655A8.2,8.2,0,0,1,117.041,14a7.4,7.4,0,0,1,2.207-1.927,6.085,6.085,0,0,1,3.1-.761,7.064,7.064,0,0,1,3.248.679,6.02,6.02,0,0,1,2.144,1.824,7.829,7.829,0,0,1,1.222,2.727,13.983,13.983,0,0,1,.393,3.344,9.916,9.916,0,0,1-.668,3.789,7.264,7.264,0,0,1-1.861,2.676,7.976,7.976,0,0,1-2.815,1.611A11.177,11.177,0,0,1,120.467,28.506Z" transform="translate(-58.585)" fill="#003169"/>
    <path id="Path_1931" data-name="Path 1931" d="M156.611,29.335V18.171c0-2.72-.766-4.7-2.275-5.9a10.12,10.12,0,0,0-6.382-1.772,11.194,11.194,0,0,0-4.772.927,10.978,10.978,0,0,0-2.839,1.76l-.219.206,1.469,1.9.264-.22A11.567,11.567,0,0,1,144.1,13.7,8.994,8.994,0,0,1,148,13a11.732,11.732,0,0,1,2.611.26,4.347,4.347,0,0,1,1.831.871,3.75,3.75,0,0,1,1.109,1.647,8.138,8.138,0,0,1,.383,2.707v.773c-.618-.1-1.337-.18-2.144-.253-.991-.09-2.13-.135-3.386-.135a13.656,13.656,0,0,0-4.221.576,8.077,8.077,0,0,0-2.892,1.589,6.065,6.065,0,0,0-1.656,2.414,8.315,8.315,0,0,0-.513,2.913,6.591,6.591,0,0,0,.69,3.18,5.606,5.606,0,0,0,1.784,2,6.8,6.8,0,0,0,2.445,1.012,13.159,13.159,0,0,0,2.663.276,11.494,11.494,0,0,0,1.937-.185,9.023,9.023,0,0,0,2.114-.65,9.611,9.611,0,0,0,2.064-1.274,8.869,8.869,0,0,0,1.255-1.229c0,.431.009.791.018,1.09.015.511.038.983.068,1.4l.022.308h2.59l-.116-1.612C156.625,30.3,156.611,29.852,156.611,29.335Zm-14.484-4.63a3.749,3.749,0,0,1,.825-1.645,4.926,4.926,0,0,1,1.909-1.294,9.366,9.366,0,0,1,3.5-.534,33.5,33.5,0,0,1,3.566.155c.8.089,1.489.2,2.054.316v2.643a4.721,4.721,0,0,1-.545,2.154,6.6,6.6,0,0,1-1.514,1.939,7.623,7.623,0,0,1-2.252,1.372,7.352,7.352,0,0,1-2.74.513,6.441,6.441,0,0,1-3.641-.95,3.333,3.333,0,0,1-1.352-3.014A8.223,8.223,0,0,1,142.126,24.705Z" transform="translate(-63.052 -1.773)" fill="#003169"/>
    <path id="Path_1932" data-name="Path 1932" d="M181.036,27.455a6.981,6.981,0,0,1-2.629,2.05,8.972,8.972,0,0,1-3.82.774,7.131,7.131,0,0,1-3.1-.683,7.979,7.979,0,0,1-2.493-1.848,8.641,8.641,0,0,1-1.659-2.737,9.311,9.311,0,0,1-.6-3.35,9.634,9.634,0,0,1,.583-3.353,8.349,8.349,0,0,1,1.635-2.734,8.009,8.009,0,0,1,2.493-1.848,7.241,7.241,0,0,1,3.147-.683,8.007,8.007,0,0,1,3.631.747,7.132,7.132,0,0,1,2.459,2.031l.2.263,2.053-1.569-.209-.265a10.02,10.02,0,0,0-3.355-2.753,11.422,11.422,0,0,0-9.009-.143,10.388,10.388,0,0,0-3.4,2.358,10.861,10.861,0,0,0-2.239,3.553,11.951,11.951,0,0,0-.806,4.4,12.246,12.246,0,0,0,.782,4.393,10.579,10.579,0,0,0,2.218,3.556,10.365,10.365,0,0,0,3.4,2.357,10.635,10.635,0,0,0,4.272.856,11.181,11.181,0,0,0,4.91-1.041,10.3,10.3,0,0,0,3.49-2.66l.206-.249-1.942-1.7Z" transform="translate(-67.239 -1.773)" fill="#003169"/>
    <path id="Path_1933" data-name="Path 1933" d="M206.858,29.335V18.171c0-2.72-.765-4.7-2.274-5.9A10.123,10.123,0,0,0,198.2,10.5a11.2,11.2,0,0,0-4.773.927,11.007,11.007,0,0,0-2.839,1.76l-.218.206,1.469,1.9.264-.22a11.541,11.541,0,0,1,2.239-1.367,8.994,8.994,0,0,1,3.9-.7,11.731,11.731,0,0,1,2.611.26,4.346,4.346,0,0,1,1.831.871,3.749,3.749,0,0,1,1.108,1.647,8.138,8.138,0,0,1,.383,2.707v.773c-.618-.1-1.337-.18-2.144-.253-.992-.09-2.13-.135-3.387-.135a13.66,13.66,0,0,0-4.221.576,8.091,8.091,0,0,0-2.892,1.589,6.071,6.071,0,0,0-1.656,2.414,8.3,8.3,0,0,0-.513,2.913,6.6,6.6,0,0,0,.689,3.18,5.622,5.622,0,0,0,1.784,2,6.8,6.8,0,0,0,2.446,1.012,13.156,13.156,0,0,0,2.662.276,11.478,11.478,0,0,0,1.937-.185,9.017,9.017,0,0,0,2.114-.65,9.585,9.585,0,0,0,2.063-1.274,8.825,8.825,0,0,0,1.255-1.229c0,.431.01.791.019,1.09.015.511.037.983.068,1.4l.022.308h2.589l-.115-1.612C206.873,30.3,206.858,29.852,206.858,29.335Zm-14.484-4.63a3.748,3.748,0,0,1,.824-1.645,4.913,4.913,0,0,1,1.909-1.294,9.36,9.36,0,0,1,3.5-.534,33.512,33.512,0,0,1,3.566.155c.8.089,1.489.2,2.054.316v2.643a4.732,4.732,0,0,1-.545,2.154,6.61,6.61,0,0,1-1.514,1.939,7.634,7.634,0,0,1-2.252,1.372,7.355,7.355,0,0,1-2.74.513,6.438,6.438,0,0,1-3.641-.95,3.333,3.333,0,0,1-1.352-3.014A8.222,8.222,0,0,1,192.374,24.705Z" transform="translate(-71.536 -1.773)" fill="#003169"/>
    <path id="Path_1934" data-name="Path 1934" d="M233.837,17.387a10.414,10.414,0,0,0-1.757-3.581,8.408,8.408,0,0,0-3-2.423,9.686,9.686,0,0,0-4.262-.884,9.031,9.031,0,0,0-3.345.561,9.557,9.557,0,0,0-2.341,1.3,7.039,7.039,0,0,0-1.479,1.505l-.128.188,0-.126q-.024-.516-.045-.922l-.045-.784q-.024-.384-.068-.883l-.027-.3h-2.547l.032.362c.029.325.051.627.066.905s.022.575.022.878V41.236h2.633V31.21a23.1,23.1,0,0,0,2.233.986,10.833,10.833,0,0,0,3.879.627,11.44,11.44,0,0,0,4.263-.785,10.122,10.122,0,0,0,3.423-2.244A10.255,10.255,0,0,0,233.6,26.3a12.161,12.161,0,0,0,.807-4.508A16.321,16.321,0,0,0,233.837,17.387ZM223.651,30.279a9.428,9.428,0,0,1-2.312-.258,11.487,11.487,0,0,1-1.8-.608,7.555,7.555,0,0,1-1.286-.706q-.425-.3-.71-.5V21.929c0-.763.037-1.519.111-2.249a7.054,7.054,0,0,1,.406-1.843A8.251,8.251,0,0,1,219,16.008a7.313,7.313,0,0,1,1.413-1.541,6.433,6.433,0,0,1,1.851-1.042,6.739,6.739,0,0,1,2.325-.381,6.878,6.878,0,0,1,3.245.7,6.04,6.04,0,0,1,2.144,1.888,8.3,8.3,0,0,1,1.225,2.8A14.264,14.264,0,0,1,231.6,21.8a9.925,9.925,0,0,1-.625,3.659,7.745,7.745,0,0,1-1.694,2.641,7.157,7.157,0,0,1-2.524,1.625A8.653,8.653,0,0,1,223.651,30.279Z" transform="translate(-75.828 -1.773)" fill="#003169"/>
  </g>
</svg>
